<svg width="265.5" height="117.41" version="1.1" viewBox="0 0 265.5036 117.4083" xmlns="http://www.w3.org/2000/svg">
 <g transform="matrix(1.3333 0 0 -1.3333 -264.62 658.88)">
  <g style="fill-opacity:.39216;fill:#bea549">
   <g transform="translate(314.15 412.52)" style="fill-opacity:.39216;fill:#bea549">
    <path d="m0 0-0.039 1.678 79.844 1.818 0.039-1.678z" style="fill-opacity:.39216;fill:#bea549"/>
   </g>
   <g transform="translate(314.88 414.12)" style="fill-opacity:.39216;fill:#bea549">
    <path d="m0 0-0.1 1.676c10.464 0.623 34.964 2.084 36.475 2.198 6.811 0.522 38.11 1.522 38.426 1.531l0.053-1.677c-0.315-0.01-31.578-1.008-38.351-1.528-1.47-0.111-23.501-1.426-36.503-2.2" style="fill-opacity:.39216;fill:#bea549"/>
   </g>
   <g transform="translate(315.39 415.83)" style="fill-opacity:.39216;fill:#bea549">
    <path d="m0 0-0.182 1.668c7.921 0.865 32.027 3.497 37.258 4.005 9.028 0.882 32.717 1.535 32.955 1.541l0.045-1.678c-0.237-7e-3 -23.867-0.658-32.837-1.534-5.222-0.508-29.32-3.138-37.239-4.002" style="fill-opacity:.39216;fill:#bea549"/>
   </g>
   <g transform="translate(315.63 417.61)" style="fill-opacity:.39216;fill:#bea549">
    <path d="m0 0-0.236 1.527c10.211 1.576 28.172 4.335 33.744 5.121 12.146 1.713 31.813 2.231 32.011 2.236l0.039-1.546c-0.197-5e-3 -19.777-0.52-31.833-2.221-5.565-0.784-23.519-3.543-33.725-5.117" style="fill-opacity:.39216;fill:#bea549"/>
   </g>
   <g transform="translate(315.64 419.49)" style="fill-opacity:.39216;fill:#bea549">
    <path d="m 0,0 -0.305,1.381 c 8.801,1.936 24.711,5.369 32.389,6.613 11.879,1.923 28.987,2.453 29.158,2.458 L 61.285,9.039 C 61.114,9.033 44.097,8.506 32.311,6.598 24.666,5.36 8.785,1.933 0,0" style="fill-opacity:.39216;fill:#bea549"/>
   </g>
   <g transform="translate(315.39 421.27)" style="fill-opacity:.39216;fill:#bea549">
    <path d="m0 0-0.34 1.235c7.133 1.962 24.593 6.704 32.658 8.366 11.326 2.329 24.782 2.524 24.916 2.526l0.016-1.281c-0.133-1e-3 -13.471-0.196-24.674-2.5-8.027-1.655-25.456-6.388-32.576-8.346" style="fill-opacity:.39216;fill:#bea549"/>
   </g>
   <g transform="translate(314.88 423.1)" style="fill-opacity:.39216;fill:#bea549">
    <path d="m0 0-0.387 1.081c8.185 2.933 23.142 8.102 31.353 9.765 13.08 2.647 22.418 2.895 22.511 2.898l0.027-1.149c-0.092-2e-3 -9.337-0.249-22.31-2.875-8.14-1.649-23.038-6.798-31.194-9.72" style="fill-opacity:.39216;fill:#bea549"/>
   </g>
   <g transform="translate(314.1 424.82)" style="fill-opacity:.39216;fill:#bea549">
    <path d="m0 0-0.422 0.925c6.868 3.129 19.79 8.733 29.168 11.11 11.683 2.961 21.132 3.43 21.227 3.435l0.047-1.015c-0.093-4e-3 -9.447-0.471-21.024-3.405-9.301-2.357-22.159-7.935-28.996-11.05" style="fill-opacity:.39216;fill:#bea549"/>
   </g>
   <g transform="translate(313.03 426.5)" style="fill-opacity:.39216;fill:#bea549">
    <path d="m0 0-0.465 0.751c4.878 3.019 14.604 8.597 24.931 12.038 14.049 4.683 22.266 4.455 22.347 4.45l-0.032-0.883c-0.074 1e-3 -8.166 0.218-22.036-4.405-10.242-3.413-19.899-8.953-24.745-11.951" style="fill-opacity:.39216;fill:#bea549"/>
   </g>
   <g transform="translate(311.74 427.98)" style="fill-opacity:.39216;fill:#bea549">
    <path d="m 0,0 -0.492,0.567 c 2.558,2.215 8.471,6.688 19.323,11.76 14.35,6.705 24.883,6.878 24.987,6.879 l 0.008,-0.751 C 43.723,18.454 33.339,18.277 19.149,11.646 8.38,6.613 2.528,2.189 0,0" style="fill-opacity:.39216;fill:#bea549"/>
   </g>
   <g transform="translate(310.43 429.14)" style="fill-opacity:.39216;fill:#bea549">
    <path d="m0 0-0.502 0.361c1.768 2.461 6.517 7.557 18.459 14.041 12.63 6.863 22.793 7.1 22.895 7.101l9e-3 -0.618c-0.099-2e-3 -10.122-0.241-22.609-7.027-11.833-6.425-16.515-11.44-18.252-13.858" style="fill-opacity:.39216;fill:#bea549"/>
   </g>
   <g transform="translate(397.59 410.46)" style="fill-opacity:.39216;fill:#bea549">
    <path d="m0 0h-85.545l1.701 2.209h83.844z" style="fill-opacity:.39216;fill:#bea549"/>
   </g>
   <g transform="translate(294.06 410.46)" style="fill-opacity:.39216;fill:#bea549">
    <path d="m0 0h-95.596v2.209h94.004z" style="fill-opacity:.39216;fill:#bea549"/>
   </g>
   <g transform="translate(206.88 442.91)" style="fill-opacity:.39216;fill:#bea549">
    <path d="m0 0c0.896-2.165 3.814-9.83 3.402-16.94-0.375-6.547-2.801-11.838-3.845-13.84l85.655 0.072c-1.299 2.066-1.982 4.434-1.982 6.896 0 0.729 0.064 1.469 0.19 2.204-1.563 2.335-6.918 9.552-17.32 16.314-10.246 6.655-22.715 10.041-36.096 9.796-14.839-0.271-27.206-3.675-30.004-4.502m-2.392-31.909 0.512 0.854c0.037 0.062 3.704 6.266 4.157 14.18 0.459 7.926-3.516 16.911-3.557 17.001l-0.257 0.574 0.599 0.193c0.137 0.044 13.929 4.425 30.921 4.736 13.584 0.27 26.295-3.199 36.731-9.978 10.881-7.072 16.354-14.668 17.772-16.827l0.125-0.19-0.043-0.224c-0.139-0.74-0.211-1.488-0.211-2.222 0-2.506 0.775-4.904 2.24-6.933l0.071-0.1 0.198-0.989h-0.687z" style="fill-opacity:.39216;fill:#bea549"/>
   </g>
   <g transform="translate(238.24 448.55)" style="fill-opacity:.39216;fill:#bea549">
    <path d="m0 0c13.072 0 25.268-3.442 35.35-9.99 9.523-6.191 14.903-12.781 17.048-15.778 0.172 0.583 0.384 1.151 0.634 1.7-1.37 3.129-5.508 10.818-15.839 19.45-6.444 5.377-19.831 11.21-32.948 11.955-15.34 0.871-27.6-0.711-30.573-1.143 0.374-1.141 0.993-3.788 1.153-9.093 5.663 1.253 14.194 2.711 23.794 2.886 0.461 9e-3 0.922 0.013 1.381 0.013m52.944-28.602-0.765 1.165c-1.388 2.114-6.746 9.548-17.444 16.501-10.245 6.656-22.715 10.041-36.096 9.796-9.891-0.18-18.639-1.736-24.235-3.009l-0.673-0.153-0.015 0.69c-0.169 7.743-1.308 9.965-1.32 9.986l-0.369 0.691 0.77 0.135c0.137 0.023 13.793 2.268 31.512 1.263 13.361-0.759 27.02-6.72 33.607-12.216 10.782-9.008 14.958-17.06 16.252-20.104l0.101-0.236-0.111-0.23c-0.441-0.915-0.762-1.894-0.954-2.909z" style="fill-opacity:.39216;fill:#bea549"/>
   </g>
   <g transform="translate(293.14 426.53)" style="fill-opacity:.39216;fill:#bea549">
    <path d="m0 0c-1.34 2.834-6.078 12.213-13.107 19.086-7.063 6.91-15.725 11.355-29.979 15.539-14.437 4.238-34.372 3.453-34.372 3.453s1.072-4.533 1.038-8.713c5.579 0.565 14.877 1.172 25.797 0.553 13.816-0.785 27.25-7.057 33.277-12.086 10.826-9.045 14.932-17.156 16.096-19.893 0.35 0.729 0.77 1.418 1.25 2.061" style="fill-opacity:.39216;fill:#bea549"/>
   </g>
   <g transform="translate(228.24 465)" style="fill-opacity:.39216;fill:#bea549">
    <path d="m0 0c6.177-0.334 14.762-1.181 21.976-3.299 14.399-4.226 23.153-8.768 30.214-15.677 5.83-5.7 10.107-13.129 12.18-17.144-1.438 3.995-4.372 11.1-8.956 17.513-4.832 6.769-17.097 15.055-27.341 18.471-11.359 3.786-23.851 6.126-26.648 6.626-0.165-1.151-0.6-3.802-1.425-6.49m64.795-39.554-0.401 0.848c-1.283 2.714-6.01 12.098-12.992 18.924-6.919 6.769-15.536 11.231-29.743 15.401-7.398 2.173-16.289 2.989-22.446 3.293l-0.742 0.036 0.235 0.705c1.203 3.614 1.674 7.521 1.679 7.56l0.07 0.588 0.584-0.099c0.143-0.024 14.49-2.469 27.39-6.769 10.436-3.48 22.953-11.952 27.902-18.885 5.464-7.645 8.619-16.242 9.721-19.584l0.1-0.305-0.211-0.242c-0.203-0.233-0.401-0.47-0.586-0.718z" style="fill-opacity:.39216;fill:#bea549"/>
   </g>
   <g transform="translate(259.25 464.99)" style="fill-opacity:.39216;fill:#bea549">
    <path d="m0 0c9.84-3.902 20.778-11.572 25.326-17.943 5.024-7.029 8.102-14.881 9.421-18.693 2.422 2.384 5.692 3.734 9.114 3.734 1.592 0 3.143-0.285 4.617-0.845 1.507 1.728 3.522 3.952 5.051 5.327 2.674 2.41 7.038 5.723 8.752 6.856 2.646 1.746 7.915 4.721 10.214 5.841 2.081 1.02 7.863 3.597 9.391 4.248l0.307 0.133c1.8 0.779 6.015 2.606 9.258 3.353 1.42 0.328 4.135 0.822 7.115 1.133 3.027 0.32 7.976 0.267 8.187 0.264l0.168 4e-3 -2.098 0.575c-0.265 0.059-2.827 0.647-3.561 0.984-0.612 0.283-1.065 0.617-1.396 0.861-0.096 0.071-0.185 0.137-0.268 0.194-0.71 0.501-1.507 0.886-1.515 0.89-1.29 0.622-3.624 0.796-5.421-0.101-0.82-0.41-1.729-1.096-2.691-1.823-1.274-0.961-2.717-2.051-4.38-2.838-0.165-0.064-3.023-1.124-5.911-1.762-2.735-0.597-5.211-0.994-8.416-0.994-2.512-0.079-3.899 0.218-4.503 0.402-0.866 0.266-1.588 0.658-1.929 1.049l-0.092 0.101c-0.251 0.277-0.564 0.62-0.651 1.332-0.089 0.794 0.197 1.303 0.449 1.751 0.31 0.565 1.012 1.301 1.546 1.818 0.759 0.722 1.586 1.233 2.367 1.679 0.792 0.45 2.444 1.339 3.746 1.942 1.173 0.544 3.434 1.559 5.046 2.283l0.952 0.428c1.084 0.485 1.386 0.62 2.669 1.223 1.437 0.675 2.099 1.089 2.877 1.601 0.349 0.229 0.707 0.503 1.067 0.778 0.398 0.304 0.799 0.61 1.192 0.864 0.751 0.488 1.33 0.994 1.996 1.746 0.18 0.202 0.309 0.338 0.411 0.447 0.286 0.304 0.317 0.335 0.794 1.207 0.625 1.135 0.797 2.113 0.979 3.148 0.149 0.837 0.117 1.462 0.068 2.407l-0.034 0.695c-0.07 1.448-0.524 2.596-0.787 3.151-0.807 1.662-1.983 3.096-1.994 3.111l-0.214 0.222c-1.171 1.232-1.877 1.975-4.548 3.131-2.585 1.115-6.203 1.652-7.747 1.881l-0.278 0.042c-1.393 0.217-6.145 0.501-9.158-0.499-3.978-1.328-7.43-3.834-10.205-5.848l-0.629-0.456c-1.459-1.055-3.57-2.484-5.806-3.998-2.079-1.408-4.23-2.864-5.916-4.061-3.418-2.427-6.941-4.817-12.435-7.375-4.533-2.11-8.52-3.589-14.389-4.442-4.902-0.714-10.566-1.158-14.782-1.158zm34.287-38.817-0.309 0.936c-1.089 3.297-4.203 11.775-9.57 19.283-4.831 6.769-17.096 15.055-27.341 18.471l-0.466 0.154 0.172 1.1h4.553c4.165 0 9.767 0.439 14.62 1.146 5.732 0.833 9.636 2.282 14.075 4.349 5.408 2.518 8.884 4.877 12.258 7.272 1.697 1.205 3.852 2.664 5.937 4.076 2.228 1.509 4.333 2.933 5.778 3.978l0.627 0.454c2.837 2.059 6.367 4.622 10.511 6.005 3.21 1.068 8.222 0.773 9.685 0.544l0.272-0.04c1.589-0.236 5.308-0.788 8.029-1.962 2.882-1.247 3.693-2.1 4.918-3.39l0.238-0.25c0.08-0.093 1.299-1.58 2.168-3.371 0.303-0.635 0.819-1.94 0.899-3.588l0.033-0.687c0.051-0.987 0.088-1.7-0.079-2.634-0.194-1.108-0.391-2.225-1.106-3.523-0.516-0.942-0.593-1.047-0.962-1.438-0.096-0.102-0.218-0.231-0.387-0.422-0.73-0.822-1.395-1.403-2.227-1.942-0.369-0.24-0.746-0.528-1.121-0.815-0.382-0.291-0.762-0.581-1.132-0.824-0.817-0.538-1.512-0.973-3.017-1.68-1.292-0.606-1.595-0.742-2.687-1.231l-0.951-0.427c-1.608-0.723-3.863-1.735-5.034-2.278-1.272-0.588-2.887-1.458-3.662-1.899-0.83-0.473-1.513-0.912-2.144-1.512-0.663-0.642-1.153-1.209-1.342-1.552-0.219-0.391-0.363-0.645-0.314-1.072 0.042-0.351 0.15-0.469 0.365-0.706l0.105-0.116c0.162-0.185 0.673-0.487 1.413-0.715 0.535-0.164 1.793-0.426 4.154-0.352 3.121 0 5.53 0.387 8.192 0.968 2.808 0.62 5.686 1.688 5.714 1.698 1.515 0.72 2.91 1.772 4.139 2.701 1.005 0.758 1.954 1.475 2.867 1.931 2.14 1.069 4.843 0.865 6.407 0.112 0.125-0.058 0.96-0.478 1.676-0.983 0.087-0.06 0.187-0.133 0.294-0.213 0.324-0.239 0.693-0.51 1.197-0.744 0.476-0.218 2.274-0.667 3.366-0.915l3.942-1.08 2.144-0.511-0.119-1.112-4.306-0.096c-0.071-1e-3 -5.113 0.055-8.074-0.259-2.93-0.305-5.591-0.788-6.98-1.109-3.143-0.725-7.292-2.522-9.063-3.289l-0.312-0.135c-1.521-0.649-7.272-3.212-9.34-4.225-2.249-1.096-7.545-4.09-10.088-5.768-1.684-1.115-5.981-4.377-8.619-6.754-1.578-1.418-3.708-3.79-5.217-5.53l-0.266-0.308-0.376 0.157c-1.447 0.604-2.983 0.91-4.563 0.91-3.417 0-6.67-1.475-8.924-4.047z" style="fill-opacity:.39216;fill:#bea549"/>
   </g>
   <g transform="translate(303.11 430.96)" style="fill-opacity:.39216;fill:#bea549">
    <path d="m0 0c-6.545 0-11.871-5.321-11.871-11.862 0-6.544 5.326-11.868 11.871-11.868 6.543 0 11.866 5.324 11.866 11.868 0 6.541-5.323 11.862-11.866 11.862m0-24.857c-7.167 0-12.998 5.829-12.998 12.995 0 7.162 5.831 12.989 12.998 12.989 7.164 0 12.993-5.827 12.993-12.989 0-7.166-5.829-12.995-12.993-12.995" style="fill-opacity:.39216;fill:#bea549"/>
   </g>
  </g>
 </g>
</svg>
