<svg width="705.12" height="243.47" version="1.1" viewBox="0 0 705.12002 243.47001" xmlns="http://www.w3.org/2000/svg" xmlns:cc="http://creativecommons.org/ns#" xmlns:dc="http://purl.org/dc/elements/1.1/" xmlns:rdf="http://www.w3.org/1999/02/22-rdf-syntax-ns#" xmlns:xlink="http://www.w3.org/1999/xlink">
 <defs>
  <linearGradient id="linearGradient5179" x1="469.24" x2="500.27" y1="478.62" y2="664.29" gradientUnits="userSpaceOnUse">
   <stop style="stop-color:#ff0;stop-opacity:.865" offset="0"/>
   <stop style="stop-color:#f0f;stop-opacity:.26977" offset="1"/>
  </linearGradient>
  <radialGradient id="radialGradient5210" cx="401.13" cy="638.71" r="342.56" gradientTransform="matrix(1 0 0 .11998 0 562.08)" gradientUnits="userSpaceOnUse">
   <stop style="stop-color:#ff2aff;stop-opacity:.79" offset="0"/>
   <stop style="stop-color:#ff2f8e;stop-opacity:.91" offset="1"/>
  </radialGradient>
  <linearGradient id="linearGradient5249" x1="532.9" x2="662.41" y1="582.46" y2="542.79" gradientUnits="userSpaceOnUse">
   <stop style="stop-color:#fff;stop-opacity:.965" offset="0"/>
   <stop style="stop-color:#87a8d6;stop-opacity:.665" offset="1"/>
  </linearGradient>
  <linearGradient id="linearGradient5288" x1="618.74" x2="566.46" y1="476.63" y2="466.56" gradientUnits="userSpaceOnUse">
   <stop style="stop-color:#b3b3b3" offset="0"/>
   <stop style="stop-color:#b3b3b3;stop-opacity:0" offset="1"/>
  </linearGradient>
  <linearGradient id="linearGradient6891" x1="469.24" x2="500.27" y1="478.62" y2="664.29" gradientUnits="userSpaceOnUse" xlink:href="#linearGradient5179"/>
  <linearGradient id="linearGradient6905" x1="532.9" x2="662.41" y1="582.46" y2="542.79" gradientUnits="userSpaceOnUse" xlink:href="#linearGradient5249"/>
  <linearGradient id="linearGradient6921" x1="618.74" x2="566.46" y1="476.63" y2="466.56" gradientUnits="userSpaceOnUse" xlink:href="#linearGradient5288"/>
  <radialGradient id="radialGradient6929" cx="401.13" cy="638.71" r="342.56" gradientTransform="matrix(1 0 0 .11998 0 562.08)" gradientUnits="userSpaceOnUse" xlink:href="#radialGradient5210"/>
 </defs>
 <g transform="translate(-48.572 -446.34)" style="fill:url(#linearGradient6891)">
  <path d="m506.92 653.38h-75.42a91.5 91.5 0 0 0 37.742 8.2421 91.5 91.5 0 0 0 37.679 -8.2421z" style="fill:url(#linearGradient6891)"/>
  <path d="m538.91 629.12h-139.5a91.5 91.5 0 0 0 8.9776 9.2126h121.67a91.5 91.5 0 0 0 8.848 -9.2126z" style="fill:url(#linearGradient6891)"/>
  <path d="m554.14 603.63h-169.86a91.5 91.5 0 0 0 5.3497 11.362h159.16a91.5 91.5 0 0 0 5.3444 -11.362z" style="fill:url(#linearGradient6891)"/>
  <path d="m559.52 584.24h-180.46a91.5 91.5 0 0 0 1.8157 8.9498h176.71a91.5 91.5 0 0 0 1.9408 -8.9498z" style="fill:url(#linearGradient6891)"/>
  <path d="m560.71 569.54h-182.95a91.5 91.5 0 0 0 -0.0205 0.57991 91.5 91.5 0 0 0 0.3601 6.2745h182.32a91.5 91.5 0 0 0 0.32347 -6.2745 91.5 91.5 0 0 0 -0.0295 -0.57991z" style="fill:url(#linearGradient6891)"/>
  <path d="m469.24 478.62a91.5 91.5 0 0 0 -91.381 88.156h182.71a91.5 91.5 0 0 0 -91.333 -88.156z" style="fill:url(#linearGradient6891)"/>
 </g>
 <g transform="translate(-48.572 -446.34)" style="fill:url(#linearGradient6905)">
  <g style="fill:url(#linearGradient6905)">
   <path d="m545.19 622.77-12.288-40.319 168.96-57.215 14.976 9.2158-19.584 62.591v6.5279l17.28 22.656z" style="fill:url(#linearGradient6905)"/>
   <path d="m565.16 567.48-1.92-37.631 27.263-18.816 64.511 1.152 1.536 24.191-8.8318 3.4559-1.536-21.12-48.383 0.38399 1.92 36.095z" style="fill:url(#linearGradient6905)"/>
   <path d="m600.87 523.32 42.623-0.76798v7.2958l-41.855 1.92z" style="fill:url(#linearGradient6905)"/>
   <path d="m602.02 535.61 0.38399 8.8318 40.703-3.8399v-6.5279z" style="fill:url(#linearGradient6905)"/>
   <path d="m602.96 547.29 0.25335 6.3335 28.374-8.3602z" style="fill:url(#linearGradient6905)"/>
  </g>
  <path d="m609.8 509.29 16.974 0.25334-0.25334-22.547h-16.214z" style="fill:url(#linearGradient6905)"/>
 </g>
 <g transform="translate(-48.572 -446.34)" style="fill:url(#linearGradient6921)">
  <ellipse cx="617.14" cy="477.49" rx="6.3335" ry="6.2068" style="fill:url(#linearGradient6921);stroke-width:0"/>
  <ellipse cx="606.63" cy="468.63" rx="9.2469" ry="9.7536" style="fill:url(#linearGradient6921);stroke-width:0"/>
  <ellipse cx="588.39" cy="468.88" rx="13.047" ry="12.54" style="fill:url(#linearGradient6921);stroke-width:0"/>
 </g>
 <g transform="translate(-48.572 -446.34)" style="fill:url(#radialGradient6929)">
  <path d="m58.572 677.31c0.0761-3.5473 2.3928-6.5219 4.361-9.2904 5.4991-6.9448 13.544-11.259 21.636-14.68 2.6734-0.89803 5.4817-1.117 8.2805-1.1621 1.9366 0.21766 3.6993-0.53594 5.5286-0.97903 1.2271-0.29723 2.3964-0.38372 3.6494-0.52283 2.9205-0.31481 5.7513-1.1727 8.6442-1.636 1.5272-0.24458 3.5517-0.3772 5.0894-0.50115 3.5752-0.23602 7.084-1.0034 10.617-1.5255 1.7703-0.2616 3.5568-0.40031 5.3313-0.63158 5.0451-0.79902 10.05-1.8047 15.109-2.5137 4.3395-0.50332 8.7105-0.54811 13.073-0.58294 4.3924 8e-3 8.7903-0.13568 13.175 0.16145 2.365 0.55746 4.803 0.87732 7.1551 1.4886 2.1507 0.55898 4.251 1.3599 6.3972 1.9509 4.3804 1.6546 8.76 3.2931 13.083 5.1032 4.6499 1.7815 9.1516 3.9113 13.773 5.7603 4.5855 1.9701 8.9131 4.4352 13.431 6.5556 4.0181 1.7906 8.1382 3.3102 12.249 4.8708 4.1375 1.4494 8.5175 1.7884 12.861 2.0087 4.5603 0.0635 9.1544 0.44927 13.686-0.15015 4.618-0.79666 9.1142-2.2234 13.517-3.8404 4.7786-1.7236 9.5303-3.5118 14.291-5.2896 2.8392-1.3707 5.907-2.0955 8.827-3.2412 3.9512-1.5502 8e-3 -0.19477 3.7693-1.4327 3.9448-1.512 8.0088-2.6889 12.038-3.9515 4.3053-1.5127 8.769-2.569 13.23-3.5118 4.8812-1.082 9.6841-2.4544 14.45-3.9555 4.6635-1.0293 9.2446-2.3717 13.771-3.89 4.2569-1.5495 8.6873-2.4611 13.05-3.6384 4.2752-1.1977 8.6851-1.8514 13.091-2.3441 5.2518-0.50388 10.529-0.56228 15.8-0.5953 5.2331-0.30215 10.352 0.71793 15.392 1.993 0.71398 0.17489 1.438 0.3128 2.142 0.52467 1.3703 0.41245 2.6856 0.99154 4.0464 1.4342 1.9228 0.62544 3.8455 1.182 5.7461 1.878 3.5576 1.0876 7.0063 2.4371 10.412 3.927 4.0112 1.4922 7.4552 4.0454 10.964 6.4369 3.2357 2.2046 6.2852 4.679 9.2662 7.2135 1.8437 1.6055 3.8533 3.1186 5.9436 4.3926 1.9818 0.77337 3.8283 1.9112 5.8315 2.6051 3.3046 1.024 6.7726 1.5057 10.201 1.9268 5.2334 0.53959 10.5 0.61004 15.756 0.65551 3.734-0.11474 7.492 0.20535 11.224 0.0257 2.225-0.10714 3.6057-0.40339 5.8039-0.76851 5.5836-1.0223 10.56-3.8265 15.666-6.1476 3.9755-2.0358 8.0005-3.9742 11.915-6.1254 2.5086-1.4096 5.2723-2.2654 7.8424-3.5251 2.825-0.8384 5.604-1.7718 8.3635-2.7992 2.8229-0.98399 5.7685-1.4298 8.7332-1.6919 1.341-0.24254 2.7551 0.0575 4.094-0.12425 0.50636-0.0687 0.97965-0.29312 1.4767-0.41159 0.36692-0.32942 0.88226-0.14785 1.2878-0.32565 0.17308-0.0759 0.25807-0.28405 0.42112-0.37962 0.63246-0.37071 1.3129-0.39147 1.9521-0.79505 1.9939-0.7032 4.0266-1.3374 6.0493-1.9938 2.4764-0.78196 5.0616-1.222 7.5387-1.9878 2.7154-0.56742 5.4678-0.89431 8.2069-1.3231 3.5358-0.70854 7.0817-1.1736 10.684-1.3746 6.1584-0.18956 12.322-0.20132 18.483-0.22503 6.2589 0.46532 12.054 2.79 17.843 5.0056 4.7469 1.9842 9.4618 3.9744 14.369 5.5351 6.236 1.8337 12.758 2.1266 19.211 2.3743 5.932 0.16948 11.867 0.13011 17.8 0.0552 3.1725-0.0722 6.346-0.0623 9.5189-0.0991 3.2176 0.13686 6.0282-1.7505 8.8728-3.003 3.7353-2.2416 7.847-3.6165 11.973-4.9214 3.3346-1.1684 6.8026-1.6434 10.291-2.0364 1.5487-0.1301 3.0993-0.13217 4.6518-0.11941 1.3463 0.0489 0.61871 0.0267 2.183 0.062l-11.873 8.6189c-1.6584 0.0226-0.88118 8e-3 -2.3317 0.0416-1.479-7e-3 -2.9601 0.0143-4.4335 0.15799-3.3642 0.30772-6.6595 1.0411-9.8688 2.0998-4.149 1.3654-8.1548 3.0349-11.989 5.14-2.9796 1.3793-5.9614 2.8266-9.3418 2.5847-3.1072-0.0247-6.2148 9e-3 -9.3218-0.0448-5.8539-0.0574-11.709-0.0975-17.56-0.30478-6.5874-0.29228-13.247-0.60121-19.595-2.5588-4.9448-1.5202-9.6323-3.6207-14.39-5.6347-5.6392-2.2051-11.355-4.367-17.484-4.6098-6.2044 0.0178-12.417 2e-3 -18.609 0.44471-3.6233 0.34062-7.1902 0.94662-10.768 1.5998-2.7299 0.4798-5.5144 0.67944-8.1788 1.4886-2.5124 0.59677-5.0056 1.258-7.4695 2.0351-2.0324 0.68994-4.1191 1.2646-6.0473 2.2212-1.2906 0.43933-2.4836 1.0695-3.8628 1.2086-1.8406 0.32356-3.7298 0.10008-5.5836 0.3528-2.8785 0.31712-5.7177 0.87734-8.4323 1.9176-2.7875 0.97185-5.6011 1.8763-8.3539 2.9368-2.6114 1.0791-5.2116 2.1934-7.7006 3.537-3.8914 2.0207-7.8141 3.9793-11.76 5.8909-5.1135 2.3793-10.211 4.9642-15.861 5.794-5.7137 0.79599-11.444 0.67413-17.203 0.58367-5.3272-0.0767-10.667-0.10359-15.968-0.70361-3.5852-0.45868-7.2347-0.86659-10.662-2.0682-2.0121-0.92146-4.0651-1.7626-6.0008-2.8397-2.0542-1.432-4.1061-2.9193-5.929-4.6381-2.8664-2.5579-5.8595-4.9839-9.032-7.1543-3.4722-2.341-6.9233-4.7534-10.91-6.1497-3.384-1.4532-6.8309-2.7269-10.331-3.8724-3.8742-1.3824-7.8025-2.6644-11.762-3.7694-4.9586-1.1836-9.9559-2.1059-15.087-1.7667-5.2672 0.081-10.546 0.17174-15.784 0.78264-4.374 0.59003-8.7367 1.3272-12.993 2.5149-4.385 1.133-8.7823 2.2073-13.051 3.7446-4.5166 1.4389-9.1026 2.6271-13.693 3.8061-4.7858 1.4865-9.6276 2.769-14.52 3.8579-4.4515 1.0457-8.8999 2.143-13.22 3.6541-4.0572 1.2566-8.1053 2.5494-12.083 4.0414-4.1631 1.503-8.3384 2.9656-12.451 4.6036-4.7637 1.7578-9.5085 3.5642-14.291 5.2696-4.4737 1.566-9.043 3.0186-13.763 3.5921-4.6152 0.34723-9.2565 0.15762-13.878-7e-3 -4.4445-0.34124-8.9157-0.78306-13.128-2.3479-4.1242-1.5492-8.1849-3.2408-12.209-5.0363-4.4799-2.1247-8.7996-4.5625-13.365-6.5049-4.6246-1.9091-9.2044-3.9267-13.874-5.7246-4.247-1.8583-8.6156-3.4098-12.987-4.9462-4.3898-1.2891-8.7398-2.7535-13.325-3.2023-4.3823-0.15843-8.7684-0.0547-13.153-0.0649-4.3258 0.0619-8.6624 0.15731-12.957 0.72585-5.0311 0.69669-10.004 1.7314-15.035 2.4377-5.3402 0.66918-10.641 1.6164-16.001 2.1322-4.6587 0.48052-9.1942 1.579-13.82 2.2859-3.1354 0.52754-6.186 1.602-9.4041 1.4828-2.6848 0.15095-5.3766 0.43589-7.8566 1.563-5.2113 2.586-1.6296 0.84893 9.4004-5.6122 0.56094-0.32858-1.1642 0.59008-1.6926 0.96887-1.7527 1.2566-3.2296 2.9438-4.6751 4.5213-1.6262 2.1754-4.3684 5.4479-4.3814 8.281l-13.229 6.7406z" style="fill:url(#radialGradient6929)"/>
  <path d="m69.332 646.52c4.6322-3.8035 7.9606-5.0179 14.8-8.9888 0.80669-0.46838 1.6189-0.536 2.526-0.64549 1.9988-0.47285 3.8228-1.0858 5.6585-2.0305 2.4373-0.75016 4.5596-2.1243 7.0762-2.6391 2.6067-1.4629 5.4273-2.3896 8.3654-2.888 3.748-1.3364 7.6512-1.8578 11.554-2.4767 4.1312-0.79743 8.2557-1.6414 12.456-1.9424 3.0729-0.18174 6.1525-0.14074 9.229-0.12811 2.8326 0.0312 5.6654 0.0458 8.4981 0.0589 3.3352-0.13561 6.6191 0.21995 9.8143 1.1771 3.0888 0.41813 6.1095 1.0268 9.0066 2.1963 1.4499 0.51513 3.0081 0.38765 4.477 0.79737 2.4738 0.69002-0.0618 0.16644 2.1843 0.58605 0.31787 0.0386 0.64798 0.0204 0.95361 0.11584 0.33287 0.10401 0.60755 0.34799 0.93288 0.4736 0.62867 0.24274 1.1073 0.21546 1.7573 0.37277 0.79357 0.19206 1.3425 0.43892 2.1104 0.73839 2.0262 0.69117 4.0872 1.4616 5.9545 2.5351 0.35634 0.11387 0.72725 0.1895 1.069 0.34161 0.74184 0.33015 1.404 0.8179 2.1277 1.1861 1.0044 0.51093 1.9763 0.83286 2.944 1.4235 1.258 0.64802 2.7016 0.6231 4.0105 1.112 1.9447 0.72638 0.10501 0.2457 1.945 0.66297 2.0244 0.0461 3.9058 0.87918 5.8745 1.1655 2.6735 0.21406 5.3595 0.1516 8.0391 0.17694 4.5319 0.0283 9.0641 0.0188 13.596 7e-3 5.0899-0.31117 10.158-0.80849 15.144-1.9056 5.1235-0.60544 10.169-1.6487 15.222-2.6694 5.032-0.9451 9.9846-2.2748 14.959-3.4867 2.7666-0.30578 5.3412-1.3777 7.9955-2.115 0.86291-0.23969 1.7531-0.37209 2.6171-0.60788 0.19768-0.0539 4.7186-1.5045 4.863-1.5507 2.5515-0.3992 4.951-1.3583 7.4104-2.0831 2.2523-0.66371 4.58-1.115 6.8505-1.7175 4.5011-1.3227 9.1076-2.3074 13.63-3.5916 4.2483-1.4246 8.6439-2.3798 12.889-3.8142 3.434-0.97345 6.7542-2.3191 10.164-3.3984 2.5964-1.0097 5.2735-1.1982 8.0305-1.2459 1.8601-0.36562 3.7211-0.65574 5.6069-0.84747 1.789-0.0824 3.5836-0.0956 5.3748-0.0806 2.3116 7e-3 4.6232 0.0152 6.9349 0.0311 3.5789 0.0316 7.1577 0.0474 10.737 0.0572 3.6315 7e-3 7.2628-0.0322 10.894-0.0347 2.7619 0.065 5.5431-0.20752 8.2876 0.15092 1.1855 0.32267 2.5031 0.17171 3.6846 0.49517 0.98513 0.26971 2.0638 0.77301 3.0191 1.1556 1.7014 0.69123 3.4202 1.437 5.0232 2.3482 1.6014 0.60882 3.0967 1.4762 4.5571 2.3649 1.9276 0.76715 3.6088 1.9944 5.5248 2.7746 2.2049 1.0693 4.5728 1.8691 6.9667 2.4064 2.079 0.22574 4.0412 1.0961 6.1117 1.2952 1.8923 0.1203 3.7465 0.56184 5.6293 0.81585 0.61386 0.16965 1.319-0.0306 1.9314 0.11293 0.5954 0.13951 1.1012 0.49216 1.7154 0.62566 0.23668 0.11801 0.45793 0.27411 0.71003 0.35403 0.30485 0.0966 0.94113 0.0607 1.2545 0.11292 0.87653 0.14593 1.7532 0.39484 2.6259 0.57154 1.5093 0.27916 3.0472 0.322 4.5776 0.35219 2.0879 0.0546 4.1766 0.0322 6.2649 0.0267 2.4334 3e-3 4.8669 0.0114 7.3003 0.0231 3.2147 0.0279 6.4296 0.0122 9.6444 0.0149 2.7971-0.0176 5.5942-0.0154 8.3913-0.0246 2.658 0.11628 5.0433-0.0527 7.5309-1.0302 1.8779-0.50435 3.4498-1.6414 5.143-2.519 3.3019-1.7114-0.65589 0.6668 2.4308-1.253 3.3438-1.3304-0.9103 0.44574 2.2296-1.1314 0.35397-0.1778 1.452-0.62364 1.1105-0.42292-3.8696 2.2745-15.532 9.0026-11.708 6.6518 0.15387-0.0946 33.259-19.092 1.5466-0.89244 0.23781-0.15165 0.47561-0.3033 0.71342-0.45495 4.45-2.5739 8.9826-5.01 13.35-7.7218 3.9346-2.4432-8.0332 4.6119-12.051 6.9154-0.22386 0.12834 0.44463-0.26203 0.66879-0.38986 13.554-7.7289 8.6435-5.643 14.123-7.931 0.80156-0.70228 1.6552-0.56663 2.6082-0.75266 0.81345-0.1588 1.687-0.55329 2.4258-0.91614 1.6179-0.32735 3.266-0.26427 4.9052-0.23896 2.2753-0.0361 4.5253-0.51964 6.8034-0.70845 2.5366-0.16818 5.0815-0.20339 7.6232-0.20701 2.6635-0.0152 5.327 6e-3 7.9906 7e-3 3.2732-0.065 6.4495 0.83667 9.6656 1.3129 5.0475 1.2068 10.096 2.4219 15.189 3.4246 4.1766 0.78834 8.4157 1.1287 12.658 1.2562 1.7159 0.0445 3.4315-0.0121 5.1471-0.0337 1.1669-0.0261-0.17457-0.065 1.1507 0.24025 0.21979 0.11699 0.42566-0.14628 0.63528-0.10112 0.34291 0.0739 0.63476 0.29902 0.95658 0.43857 0.90081 0.60024 1.7468 1.2443 2.6566 1.8115 0.38151 0.80926 0.88587 0.44037 1.4539 0.69444 0.15181 0.0679 0.59787 0.47428 0.74249 0.60156 0.62271 0.30574 1.3157 0.2717 1.9944 0.29647 1.1061 6e-3 2.2123 0.0207 3.3184 0.0131 1.5433 0.0103 3.0868-3e-3 4.63 0.0107 2.2554-0.0141 4.5107 0.12144 6.7544-0.12532 3.629-0.56922 7.2882-1.0101 10.914-1.614 1.7057-0.22365 3.3636-0.65308 5.0406-0.989 1.3019-0.2608 2.6328-0.25309 3.9409-0.49714 0.34195-0.0755 0.69158-0.12211 1.0258-0.22647 0.30376-0.0948 0.574-0.28344 0.88058-0.3687 0.60055-0.167 1.2585-0.0367 1.8587-0.205 0.55896-0.15671 1.0588-0.48766 1.6174-0.6457-1.9433 1.1553 4.8779-2.2358 2.9307-1.0997-4.0129 2.3414-15.892 9.5858-12.144 6.8398 4.1239-3.0216 8.8536-5.1148 13.28-7.6722-21.777 12.354-14.358 8.9658-10.083 5.4958 4.7342-3.5676 10.026-5.82 15.235-8.9886 3.9754-2.4184-8.0846 4.61-12.127 6.915 35.285-19.944 1.8039-0.95164 1.3591-0.70217-0.239 0.13406 0.45273-0.30891 0.67954-0.4627 0.83215-0.56426 1.613-1.1161 2.3769-1.7706 4.8002-3.313 10.356-6.1181 15.186-8.9058 0.77206-0.44568 1.5217-0.82123 2.3521-1.1469 1.0958-0.14764 2.0426-0.79842 3.07-1.1215 1.3379-0.42077 2.8432-0.44915 4.218-0.72568 0.49968-0.13661 1.0037-0.25832 1.499-0.40982 2.2236-0.68003 0.94086-0.44727 3.2262-0.89683 1.4029-0.27599 2.791-0.39423 4.1753-0.75529 1.4645-0.46038 2.9726-0.81458 4.5048-0.93982 1.0907-0.0361 2.1818-0.0287 3.2728-0.0133 1.3558 0.0102 2.7119 8e-3 4.0677 0.0255 2.1574 0.67474 4.3153 1.3824 6.4841 2.0445 3.1397 1.3404 6.3898 2.4312 9.6189 3.5422 2.691 0.71344 5.3052 1.7255 8.0543 2.2059 1.9597 0.26953 3.942 0.23793 5.9151 0.26673 4.6998 0.16321 9.1779-1.6993 13.456-3.436 5.6127-2.4834 11.354-4.7159 16.83-7.4928 1.539-0.72031 2.957-1.6121 4.5063-2.3039l-11.471 9.1389c-1.4215 0.72195-2.8337 1.4626-4.2794 2.136-5.5317 2.5551-11.152 4.9208-16.759 7.3043-4.5286 1.7666-9.2281 3.4385-14.16 3.2711-2.0596 4e-3 -4.1301-2e-3 -6.1481-0.47364-2.703-0.68921-5.313-1.7096-7.9973-2.4677-3.2236-1.158-6.4721-2.2428-9.6863-3.427-2.0668-0.6425-4.1725-1.4237-6.3315-1.6159-1.3699 0.0138-2.7402 5e-3 -4.1102 8e-3 -1.0606 0.0155-2.1282 0.0104-3.1782 0.17886-1.4418 0.25954-2.8629 0.59836-4.2906 0.92853-3.0025 0.49235-5.9369 1.165-8.8637 1.9986-2.4866 0.45509-4.884 1.1413-7.1844 2.2112-1.0586 0.55704-0.56949 0.28862-1.5911 0.8693-0.22311 0.12681-0.89118 0.50942-0.66905 0.38091 20.817-12.043 14.525-8.1833 9.9787-5.842-1.0554 0.71764-1.8566 1.6363-2.9751 2.2908-0.43669 0.25552-33.071 19.14-1.3198 0.74974-4.444 2.5557-8.6974 5.4761-13.332 7.6672-4.2561 2.012 8.1007-4.7997 12.192-7.1283 1.2086-0.68788-2.6519 1.9356-1.4746 1.0463-0.16273 0.12962-0.32546 0.25923-0.48819 0.38885-5.2685 3.2716-4.9182 9.7876-15.29 9.2537 4.0216-2.3407 16.247-9.0628 12.065-7.022-5.5708 2.7187-10.297 7.0523-16.284 8.704-1.7568 0.57299-3.6276 0.83006-5.4312 1.2161-2.9576 0.35062-5.877 0.90467-8.8185 1.3732-3.6949 0.54775-7.3805 1.1741-11.089 1.6102-2.3134 0.13136-4.6283 0.0994-6.9448 0.11643-1.559 0.0163-3.1182 7e-3 -4.6773 0.0234-1.1492-7e-3 -2.3026 0.034-3.4469-0.0968-0.89905-0.13592-1.7535-0.37799-2.4747-0.96051-0.71156-0.3829-1.5441-0.57178-2.1012-1.2521-0.77886-0.54444-1.5803-1.1286-2.4659-1.4706-0.78238-0.17003-1.6163-0.17332-2.4239-0.19979-1.6705 3e-3 -3.341-0.0572-5.0078-0.16852-4.198-0.28482-8.3818-0.79215-12.507-1.6327-5.1051-1.0756-10.202-2.192-15.313-3.2378-3.2119-0.45677-6.408-1.2008-9.675-1.0497-2.6679-3e-3 -5.3358 6e-3 -8.0036 0.0193-2.5225 0.0399-5.0488 0.0621-7.561 0.32008-2.319 0.25378-4.6218 0.71749-6.9654 0.65184-1.546 0.0232-3.1179 0.0534-4.5616 0.67874-1.6962 0.52897-3.4588 0.81268-5.0174 1.7165-4.8964 2.2073-2.2277 1.0356 11.252-6.6629 0.22881-0.13067-0.38678 0.36453-0.61425 0.49751-4.4206 2.5843-8.6926 5.4602-13.322 7.6495-3.9071 1.8479 16.446-10.566 11.265-6.4198-37.333 21.609-0.16578 0.10801-1.6084 0.8991-5.6313 3.088-10.975 6.6506-16.752 9.449-2.5304 1.2973-5.0082 2.7383-7.7622 3.5236-2.5836 0.61549-5.1572 0.84696-7.8155 0.69016-2.7745-9e-3 -5.549-7e-3 -8.3234-0.0247-3.2289 3e-3 -6.4578-0.0129-9.6866 0.0164-2.4591 0.0132-4.9182 0.0243-7.3773 0.0341-2.1171-1e-3 -4.2344-8e-3 -6.3514-0.0267-1.5817-0.0736-3.1641-0.21793-4.7109-0.5719-1.5669-0.33983-3.1708-0.48601-4.6708-1.0854-1.1701-0.36703-2.334-0.47829-3.5553-0.61191-1.8386-0.34045-3.6757-0.70165-5.5393-0.8742-2.0698-0.43506-4.1147-0.98005-6.1792-1.44-2.4182-0.7544-4.8744-1.4166-7.1331-2.5924-1.8796-0.95383-3.7445-1.9371-5.6329-2.8713-1.5013-0.82684-3.007-1.6372-4.5799-2.3214-1.5525-0.84868-3.1931-1.5792-4.8477-2.2-2.0925-0.73647-4.1902-1.2725-6.4268-1.3662-2.7097-0.14852-5.4271-0.0309-8.1397-0.0882-3.5995-2e-3 -7.1989-0.0419-10.798-0.035-3.6297 9e-3 -7.2592 0.0251-10.889 0.052-2.3337 0.0123-4.6674 0.0112-7.001 0.0268-1.7781 0.031-3.5615 0.0159-5.3299 0.23339-1.8648 0.20751-3.7025 0.631-5.5829 0.69321-2.6549 0.12224-5.2026 0.59811-7.7073 1.5178-3.3476 1.1043-6.6447 2.3668-10.046 3.2985-4.284 1.2803-8.6027 2.4424-12.883 3.7352-4.5501 1.2002-9.1224 2.3164-13.653 3.586-4.7398 1.2084-9.4384 2.5385-14.159 3.8184-5.1058 1.6092-10.284 3.0229-15.509 4.1837-4.9787 1.2621-9.9666 2.5255-15.02 3.452-5.0575 1.0125-10.124 1.9504-15.229 2.6858-5.0621 0.98975-10.213 1.4575-15.361 1.7033-4.5714 1e-3 -9.143 0.0147-13.714 0.0814-2.787 0.0409-5.6035 0.13446-8.3652-0.30674-1.9707-0.49832-3.956-0.84538-5.9436-1.259-2.0432-0.6909-4.1799-1.12-6.1206-2.0718-2.0243-1.0033-4.0371-2.0386-6.1156-2.9237-1.8986-0.88747-3.8371-1.6928-5.8254-2.3583-1.8815-0.56786-3.7845-1.0801-5.689-1.5518-2.2324-0.60244-4.5377-0.81753-6.7193-1.5958-2.8821-1.046-5.8632-1.5336-8.8633-2.1207-3.1482-0.7859-6.3706-0.94921-9.6086-0.84597-2.8522 1e-3 -5.7045-2e-3 -8.5566-0.028-3.0062-0.0388-6.0167-0.0726-9.018 0.14041-4.168 0.40313-8.2666 1.2665-12.383 2.0139-3.9246 0.59132-7.7573 1.4562-11.567 2.578-2.9179 0.71418-5.6157 1.9594-8.4072 3.0312-2.3552 0.80447-4.583 1.9501-6.9068 2.8431-1.912 0.84368-3.923 1.3388-5.9537 1.8147-0.92175 0.28346-0.69444 0.16782-1.5367 0.60383-0.23111 0.11964-0.90817 0.50856-0.68429 0.37589 22.351-13.245 13.697-9.3049 10.465-5.7621l-13.796 5.4867z" style="fill:url(#radialGradient6929)"/>
 </g>
</svg>
