<svg width="17.526" height="15.565" version="1.1" xmlns="http://www.w3.org/2000/svg" xmlns:cc="http://creativecommons.org/ns#" xmlns:dc="http://purl.org/dc/elements/1.1/" xmlns:rdf="http://www.w3.org/1999/02/22-rdf-syntax-ns#">
 <g transform="translate(-5.0034 -2.5482)">
  <path d="m17.319 15.044-0.0096-0.0021c-0.04194 0-0.07849 0.01179-0.11288 0.02681-0.83292 0.1235-1.7024-0.20833-2.2945-0.97719l-4.2554-6.0056c-0.92321-1.2473-2.5567-1.3836-3.6422-0.29906l-1.8533 1.8519-0.11986 0.11912c-0.017771 0.035441-0.027411 0.071961-0.027411 0.11006 0 0.13745 0.11123 0.24536 0.24505 0.25564 0.037628-0.01028 0.080579-0.01725 0.11821-0.02365 0.83076-0.12401 1.7002 0.20992 2.2929 0.97453l4.2548 6.0045c0.92148 1.2484 2.5551 1.3885 3.6427 0.30114l1.8479-1.846 0.13432-0.14069c0.01345-0.03055 0.02209-0.0606 0.02209-0.09554 0-0.13745-0.10907-0.24536-0.24289-0.25398" style="fill-opacity:.39216;fill:#fff"/>
  <path d="m9.7906 5.5937c0.85975-0.17397 1.7748 0.14608 2.3934 0.94448l4.0473 5.6764c0.03015 0.04242 0.06295 0.08591 0.10108 0.12135 0.36376 0.35973 0.94415 0.35973 1.3042 0 0.01238-0.01236 3.8206-3.817 4.755-4.7508 0.04194-0.039179 0.06928-0.064988 0.10159-0.096115 0.01662-0.041336 0.03597-0.082097 0.03597-0.13314 0-0.03652-0.0076-0.071386-0.02094-0.10359l-0.06346-0.093456-1.9317-2.7319-0.08547-0.1166c-0.04245-0.032206-0.09562-0.055283-0.15418-0.055283-0.04461 0-0.08655 0.012365-0.12468 0.035441l-0.08979 0.095037-2.5245 2.516-2.3864-3.3279c-0.91558-1.2392-2.5352-1.3762-3.6115-0.2974l-1.9312 1.9281-0.00432 0.00216c-0.04029 0.045649-0.066622 0.10043-0.066622 0.16376 0 0.12401 0.032807 0.1987 0.22893 0.23033z" style="fill-opacity:.39216;fill:#fff"/>
 </g>
</svg>
