<svg width="128.11" height="70" enable-background="new 0 0 246 70" version="1.1" viewBox="0 0 128.11133 70" xmlns="http://www.w3.org/2000/svg">
 <g style="fill-opacity:.39216;fill:#e2177e">
  <path d="m5e-7 5e-7v70h18.842v-21.348h-7.5996v-7.5215h23.736v7.5215h-7.5566v21.348h9.5195v-28.869h21.49v7.5215h-12.912v2.8164h12.615v7.5195h-12.615v3.1191h12.912v7.8926h14.854c-7.762-0.902-13.398-6.5787-13.398-14.598 0-8.802 6.712-14.736 15.584-14.736 7.433 0 11.17 4.3552 12.871 8.2852l-7.3906 3.459c-0.722-2.22-2.9325-4.1426-5.4805-4.1426-4.119 0-6.877 3.1588-6.877 7.1348 0 3.972 2.759 7.1348 6.877 7.1348 2.548 0 4.7585-1.9255 5.4805-4.1465l7.3906 3.418c-1.493 3.424-4.7165 7.4245-10.77 8.1875h12.264v-28.865h8.5801v10.084h10.148v-10.084h8.5781v28.865h10.969v-69.996zm117.14 69.996h-8.5781v2e-3h8.5781zm-8.5781 0v-11.262h-10.148v11.262zm-10.148 0h-8.5801v0.003906l8.5801-2e-3zm-87.174-59.139h23.736v7.5195h-7.5566v20.975h-8.5801v-20.975h-7.5996zm52.045 0h8.5781v20.975h10.744v7.5195h-19.322zm-22.777 2e-3h10.789l10.445 28.492h-9.7266l-1.0176-3.332h-10.193l-1.0176 3.332h-9.7246z" style="fill-opacity:.39216;fill:#e2177e;stroke-width:0"/>
  <g transform="translate(-.058593)" style="fill-opacity:.39216;fill:#e2177e">
   <path d="m48.763 28.853-2.8-9.185-2.804 9.185z" style="fill-opacity:.39216;fill:#e2177e"/>
  </g>
 </g>
</svg>
